<svg xmlns="http://www.w3.org/2000/svg" viewBox="0 0 24 24" width="24" height="24" fill="none">
  
  <path d="M21.35 11.1H12.18v2.93h5.36c-.22 1.27-.92 2.35-1.96 3.07v2.55h3.18c1.86-1.72 2.93-4.26 2.93-7.3 0-.53-.05-1.04-.14-1.52-.01-.24-.1-.48-.2-.73z" stroke="currentColor" stroke-width="1.75" stroke-linecap="round" stroke-linejoin="round"/>
  <path d="M12.18 22c2.7 0 4.96-.9 6.62-2.42l-3.18-2.55c-.9.6-2.04.96-3.44.96-2.65 0-4.9-1.79-5.7-4.2H3.2v2.63A10 10 0 0 0 12.18 22z" stroke="currentColor" stroke-width="1.75" stroke-linecap="round" stroke-linejoin="round"/>
  <path d="M6.48 13.79A6.1 6.1 0 0 1 6.16 12c0-.62.1-1.22.32-1.79V7.58H3.2A10 10 0 0 0 2.18 12c0 1.61.38 3.13 1.02 4.42l3.28-2.63z" stroke="currentColor" stroke-width="1.75" stroke-linecap="round" stroke-linejoin="round"/>
  <path d="M12.18 5.8c1.49 0 2.83.51 3.88 1.52l2.9-2.9C17.13 2.79 14.87 2 12.18 2A10 10 0 0 0 3.2 7.58l3.28 2.63c.8-2.41 3.05-4.2 5.7-4.2z" stroke="currentColor" stroke-width="1.75" stroke-linecap="round" stroke-linejoin="round"/>

</svg>