<svg xmlns="http://www.w3.org/2000/svg" viewBox="0 0 24 24" width="24" height="24" fill="none">
  <path d="M10.29 3.86L1.82 18C1.64537 18.3024 1.55296 18.6453 1.55199 18.9945C1.55101 19.3437 1.64151 19.6871 1.81445 19.9905C1.98738 20.2939 2.23675 20.5468 2.53773 20.7239C2.83871 20.901 3.18082 20.9962 3.53 21H20.47C20.8192 20.9962 21.1613 20.901 21.4623 20.7239C21.7632 20.5468 22.0126 20.2939 22.1855 19.9905C22.3585 19.6871 22.449 19.3437 22.448 18.9945C22.447 18.6453 22.3546 18.3024 22.18 18L13.71 3.86C13.5317 3.56611 13.2807 3.32313 12.9812 3.15449C12.6817 2.98585 12.3437 2.89726 12 2.89726C11.6563 2.89726 11.3183 2.98585 11.0188 3.15449C10.7193 3.32313 10.4683 3.56611 10.29 3.86Z" stroke="currentColor" stroke-width="1.75" stroke-linecap="round" stroke-linejoin="round" fill="none"/>
<line x1="12" y1="9" x2="12" y2="13" stroke="currentColor" stroke-width="1.75" stroke-linecap="round"/>
<line x1="12" y1="17" x2="12.01" y2="17" stroke="currentColor" stroke-width="2.5" stroke-linecap="round"/>
</svg>